<svg preserveAspectRatio="none" overflow="visible" style="display: block;" width="48" height="48" viewBox="0 0 48 48" fill="none" xmlns="http://www.w3.org/2000/svg">
<g id="icon/camera">
<path id="Vector" d="M34 12H14C10.134 12 7 15.134 7 19V31C7 34.866 10.134 38 14 38H34C37.866 38 41 34.866 41 31V19C41 15.134 37.866 12 34 12Z" stroke="#F7F5FA" stroke-width="2.5"/>
<path id="Vector_2" d="M17 12L20 7H28L31 12" stroke="#F7F5FA" stroke-width="2.5" stroke-linecap="round"/>
<path id="Vector_3" d="M24 32C27.866 32 31 28.866 31 25C31 21.134 27.866 18 24 18C20.134 18 17 21.134 17 25C17 28.866 20.134 32 24 32Z" stroke="#F7F5FA" stroke-width="2.5"/>
</g>
</svg>
